{"asset":{"version":"2.0","generator":"Blockbench 5.0.4 glTF exporter"},"scenes":[{"nodes":[0,1,2,3],"name":"blockbench_export"}],"scene":0,"nodes":[{"translation":[0,0.625,0],"name":"cylinder","mesh":0},{"rotation":[0,0,0.3826834323650898,0.9238795325112867],"translation":[-0.0625,2.25,0],"name":"cylinder","mesh":1},{"rotation":[0,0,0.7071067811865475,0.7071067811865476],"translation":[-0.4375,2.65625,0],"name":"cylinder","mesh":2},{"rotation":[0,0,0.7071067811865475,0.7071067811865476],"translation":[-0.5625,2.5625,0],"name":"cuboid","mesh":3}],"bufferViews":[{"buffer":0,"byteOffset":0,"byteLength":1920,"target":34962,"byteStride":12},{"buffer":0,"byteOffset":1920,"byteLength":1920,"target":34962,"byteStride":12},{"buffer":0,"byteOffset":3840,"byteLength":1280,"target":34962,"byteStride":8},{"buffer":0,"byteOffset":5120,"byteLength":384,"target":34963},{"buffer":0,"byteOffset":5504,"byteLength":1920,"target":34962,"byteStride":12},{"buffer":0,"byteOffset":7424,"byteLength":1920,"target":34962,"byteStride":12},{"buffer":0,"byteOffset":9344,"byteLength":1280,"target":34962,"byteStride":8},{"buffer":0,"byteOffset":10624,"byteLength":384,"target":34963},{"buffer":0,"byteOffset":11008,"byteLength":1920,"target":34962,"byteStride":12},{"buffer":0,"byteOffset":12928,"byteLength":1920,"target":34962,"byteStride":12},{"buffer":0,"byteOffset":14848,"byteLength":1280,"target":34962,"byteStride":8},{"buffer":0,"byteOffset":16128,"byteLength":384,"target":34963},{"buffer":0,"byteOffset":16512,"byteLength":288,"target":34962,"byteStride":12},{"buffer":0,"byteOffset":16800,"byteLength":288,"target":34962,"byteStride":12},{"buffer":0,"byteOffset":17088,"byteLength":192,"target":34962,"byteStride":8},{"buffer":0,"byteOffset":17280,"byteLength":72,"target":34963}],"buffers":[{"byteLength":17352,"uri":"data:application/octet-stream;base64,"}],"accessors":[{"bufferView":0,"componentType":5126,"count":160,"max":[0.125,1.625,0.125],"min":[-0.125,-0.625,-0.125],"type":"VEC3"},{"bufferView":1,"componentType":5126,"count":160,"max":[1,1,1],"min":[-1,-1,-1],"type":"VEC3"},{"bufferView":2,"componentType":5126,"count":160,"max":[0.375,0.5625],"min":[0.00017187499906867743,0],"type":"VEC2"},{"bufferView":3,"componentType":5123,"count":192,"max":[159],"min":[0],"type":"SCALAR"},{"bufferView":4,"componentType":5126,"count":160,"max":[0.125,0.625,0.125],"min":[-0.125,-0.125,-0.125],"type":"VEC3"},{"bufferView":5,"componentType":5126,"count":160,"max":[1,1,1],"min":[-1,-1,-1],"type":"VEC3"},{"bufferView":6,"componentType":5126,"count":160,"max":[0.03186214715242386,0.125],"min":[0,0],"type":"VEC2"},{"bufferView":7,"componentType":5123,"count":192,"max":[159],"min":[0],"type":"SCALAR"},{"bufferView":8,"componentType":5126,"count":160,"max":[0.125,1,0.125],"min":[-0.125,0,-0.125],"type":"VEC3"},{"bufferView":9,"componentType":5126,"count":160,"max":[1,1,1],"min":[-1,-1,-1],"type":"VEC3"},{"bufferView":10,"componentType":5126,"count":160,"max":[0.03186214715242386,0.25],"min":[0,0],"type":"VEC2"},{"bufferView":11,"componentType":5123,"count":192,"max":[159],"min":[0],"type":"SCALAR"},{"bufferView":12,"componentType":5126,"count":24,"max":[0.03125,0.78125,0.09375],"min":[-0.03125,0.21875,-0.09375],"type":"VEC3"},{"bufferView":13,"componentType":5126,"count":24,"max":[1,1,1],"min":[-1,-1,-1],"type":"VEC3"},{"bufferView":14,"componentType":5126,"count":24,"max":[0.34375,0.59375],"min":[0,0],"type":"VEC2"},{"bufferView":15,"componentType":5123,"count":36,"max":[23],"min":[0],"type":"SCALAR"}],"materials":[{"pbrMetallicRoughness":{"metallicFactor":0,"roughnessFactor":1,"baseColorTexture":{"index":0}},"alphaMode":"MASK","alphaCutoff":0.05,"doubleSided":true},{"pbrMetallicRoughness":{"metallicFactor":0,"roughnessFactor":1,"baseColorTexture":{"index":1}},"alphaMode":"MASK","alphaCutoff":0.05,"doubleSided":true}],"textures":[{"sampler":0,"source":0,"name":"gris"},{"sampler":1,"source":1,"name":"white"}],"samplers":[{"magFilter":9728,"minFilter":9728,"wrapS":33071,"wrapT":33071},{"magFilter":9728,"minFilter":9728,"wrapS":33071,"wrapT":33071}],"images":[{"mimeType":"image/png","uri":"data:image/png;base64,"},{"mimeType":"image/png","uri":"data:image/png;base64,"}],"meshes":[{"primitives":[{"mode":4,"attributes":{"POSITION":0,"NORMAL":1,"TEXCOORD_0":2},"indices":3,"material":0}]},{"primitives":[{"mode":4,"attributes":{"POSITION":4,"NORMAL":5,"TEXCOORD_0":6},"indices":7,"material":0}]},{"primitives":[{"mode":4,"attributes":{"POSITION":8,"NORMAL":9,"TEXCOORD_0":10},"indices":11,"material":0}]},{"primitives":[{"mode":4,"attributes":{"POSITION":12,"NORMAL":13,"TEXCOORD_0":14},"indices":15,"material":1}]}]}