{"asset":{"version":"2.0","generator":"Blockbench 5.0.4 glTF exporter"},"scenes":[{"nodes":[0,1,2,3],"name":"blockbench_export"}],"scene":0,"nodes":[{"translation":[0,-0.4375,0],"name":"tron","mesh":0},{"translation":[0,0.375,0],"name":"cone","mesh":1},{"translation":[0,0.625,0],"name":"cone","mesh":2},{"translation":[0,0.875,0],"name":"cone","mesh":3}],"bufferViews":[{"buffer":0,"byteOffset":0,"byteLength":288,"target":34962,"byteStride":12},{"buffer":0,"byteOffset":288,"byteLength":288,"target":34962,"byteStride":12},{"buffer":0,"byteOffset":576,"byteLength":192,"target":34962,"byteStride":8},{"buffer":0,"byteOffset":768,"byteLength":72,"target":34963},{"buffer":0,"byteOffset":840,"byteLength":864,"target":34962,"byteStride":12},{"buffer":0,"byteOffset":1704,"byteLength":864,"target":34962,"byteStride":12},{"buffer":0,"byteOffset":2568,"byteLength":576,"target":34962,"byteStride":8},{"buffer":0,"byteOffset":3144,"byteLength":144,"target":34963},{"buffer":0,"byteOffset":3288,"byteLength":864,"target":34962,"byteStride":12},{"buffer":0,"byteOffset":4152,"byteLength":864,"target":34962,"byteStride":12},{"buffer":0,"byteOffset":5016,"byteLength":576,"target":34962,"byteStride":8},{"buffer":0,"byteOffset":5592,"byteLength":144,"target":34963},{"buffer":0,"byteOffset":5736,"byteLength":864,"target":34962,"byteStride":12},{"buffer":0,"byteOffset":6600,"byteLength":864,"target":34962,"byteStride":12},{"buffer":0,"byteOffset":7464,"byteLength":576,"target":34962,"byteStride":8},{"buffer":0,"byteOffset":8040,"byteLength":144,"target":34963}],"buffers":[{"byteLength":8184,"uri":"data:application/octet-stream;base64,"}],"accessors":[{"bufferView":0,"componentType":5126,"count":24,"max":[0.0625,1.5625,0.0625],"min":[-0.0625,0.4375,-0.0625],"type":"VEC3"},{"bufferView":1,"componentType":5126,"count":24,"max":[1,1,1],"min":[-1,-1,-1],"type":"VEC3"},{"bufferView":2,"componentType":5126,"count":24,"max":[0.4375,0.5625],"min":[0,0],"type":"VEC2"},{"bufferView":3,"componentType":5123,"count":36,"max":[23],"min":[0],"type":"SCALAR"},{"bufferView":4,"componentType":5126,"count":72,"max":[0.34375,0.375,0.34375],"min":[-0.34375,0,-0.34375],"type":"VEC3"},{"bufferView":5,"componentType":5126,"count":72,"max":[0.7371541261672974,0.6757246255874634,0.7371541261672974],"min":[-0.7371541261672974,-1,-0.7371541261672974],"type":"VEC3"},{"bufferView":6,"componentType":5126,"count":72,"max":[0.5617206692695618,0.6136208772659302],"min":[0.0006763586425222456,0.109375],"type":"VEC2"},{"bufferView":7,"componentType":5123,"count":72,"max":[71],"min":[0],"type":"SCALAR"},{"bufferView":8,"componentType":5126,"count":72,"max":[0.34375,0.375,0.34375],"min":[-0.34375,0,-0.34375],"type":"VEC3"},{"bufferView":9,"componentType":5126,"count":72,"max":[0.7371541261672974,0.6757246255874634,0.7371541261672974],"min":[-0.7371541261672974,-1,-0.7371541261672974],"type":"VEC3"},{"bufferView":10,"componentType":5126,"count":72,"max":[0.48369863629341125,0.5823708772659302],"min":[0,0],"type":"VEC2"},{"bufferView":11,"componentType":5123,"count":72,"max":[71],"min":[0],"type":"SCALAR"},{"bufferView":12,"componentType":5126,"count":72,"max":[0.28125,0.375,0.28125],"min":[-0.28125,0,-0.28125],"type":"VEC3"},{"bufferView":13,"componentType":5126,"count":72,"max":[0.800000011920929,0.6000000238418579,0.800000011920929],"min":[-0.800000011920929,-1,-0.800000011920929],"type":"VEC3"},{"bufferView":14,"componentType":5126,"count":72,"max":[0.609310507774353,0.5859375],"min":[0.00006451708759414032,0],"type":"VEC2"},{"bufferView":15,"componentType":5123,"count":72,"max":[71],"min":[0],"type":"SCALAR"}],"materials":[{"pbrMetallicRoughness":{"metallicFactor":0,"roughnessFactor":1,"baseColorTexture":{"index":0}},"alphaMode":"MASK","alphaCutoff":0.05,"doubleSided":true},{"pbrMetallicRoughness":{"metallicFactor":0,"roughnessFactor":1,"baseColorTexture":{"index":1}},"alphaMode":"MASK","alphaCutoff":0.05,"doubleSided":true}],"textures":[{"sampler":0,"source":0,"name":"tron"},{"sampler":1,"source":1,"name":"feuille"}],"samplers":[{"magFilter":9728,"minFilter":9728,"wrapS":33071,"wrapT":33071},{"magFilter":9728,"minFilter":9728,"wrapS":33071,"wrapT":33071}],"images":[{"mimeType":"image/png","uri":"data:image/png;base64,"},{"mimeType":"image/png","uri":"data:image/png;base64,"}],"meshes":[{"primitives":[{"mode":4,"attributes":{"POSITION":0,"NORMAL":1,"TEXCOORD_0":2},"indices":3,"material":0}]},{"primitives":[{"mode":4,"attributes":{"POSITION":4,"NORMAL":5,"TEXCOORD_0":6},"indices":7,"material":1}]},{"primitives":[{"mode":4,"attributes":{"POSITION":8,"NORMAL":9,"TEXCOORD_0":10},"indices":11,"material":1}]},{"primitives":[{"mode":4,"attributes":{"POSITION":12,"NORMAL":13,"TEXCOORD_0":14},"indices":15,"material":1}]}]}